<svg width="31mm" height="31mm" version="1.1" viewBox="0 0 31 31" fill_color="(63, 211, 144)"
    back_color="(63, 211, 144)" xmlns="http://www.w3.org/2000/svg">
    <path
        d="M5,5H6V6H5zM6,5H7V6H6zM7,5H8V6H7zM8,5H9V6H8zM9,5H10V6H9zM10,5H11V6H10zM11,5H12V6H11zM14,5H15V6H14zM15,5H16V6H15zM16,5H17V6H16zM19,5H20V6H19zM20,5H21V6H20zM21,5H22V6H21zM22,5H23V6H22zM23,5H24V6H23zM24,5H25V6H24zM25,5H26V6H25zM5,6H6V7H5zM11,6H12V7H11zM13,6H14V7H13zM19,6H20V7H19zM25,6H26V7H25zM5,7H6V8H5zM7,7H8V8H7zM8,7H9V8H8zM9,7H10V8H9zM11,7H12V8H11zM14,7H15V8H14zM15,7H16V8H15zM16,7H17V8H16zM19,7H20V8H19zM21,7H22V8H21zM22,7H23V8H22zM23,7H24V8H23zM25,7H26V8H25zM5,8H6V9H5zM7,8H8V9H7zM8,8H9V9H8zM9,8H10V9H9zM11,8H12V9H11zM14,8H15V9H14zM15,8H16V9H15zM19,8H20V9H19zM21,8H22V9H21zM22,8H23V9H22zM23,8H24V9H23zM25,8H26V9H25zM5,9H6V10H5zM7,9H8V10H7zM8,9H9V10H8zM9,9H10V10H9zM11,9H12V10H11zM13,9H14V10H13zM15,9H16V10H15zM16,9H17V10H16zM17,9H18V10H17zM19,9H20V10H19zM21,9H22V10H21zM22,9H23V10H22zM23,9H24V10H23zM25,9H26V10H25zM5,10H6V11H5zM11,10H12V11H11zM14,10H15V11H14zM15,10H16V11H15zM16,10H17V11H16zM19,10H20V11H19zM25,10H26V11H25zM5,11H6V12H5zM6,11H7V12H6zM7,11H8V12H7zM8,11H9V12H8zM9,11H10V12H9zM10,11H11V12H10zM11,11H12V12H11zM13,11H14V12H13zM15,11H16V12H15zM17,11H18V12H17zM19,11H20V12H19zM20,11H21V12H20zM21,11H22V12H21zM22,11H23V12H22zM23,11H24V12H23zM24,11H25V12H24zM25,11H26V12H25zM14,12H15V13H14zM5,13H6V14H5zM7,13H8V14H7zM9,13H10V14H9zM11,13H12V14H11zM17,13H18V14H17zM21,13H22V14H21zM24,13H25V14H24zM5,14H6V15H5zM6,14H7V15H6zM7,14H8V15H7zM8,14H9V15H8zM9,14H10V15H9zM10,14H11V15H10zM12,14H13V15H12zM16,14H17V15H16zM18,14H19V15H18zM20,14H21V15H20zM24,14H25V15H24zM25,14H26V15H25zM6,15H7V16H6zM7,15H8V16H7zM8,15H9V16H8zM11,15H12V16H11zM13,15H14V16H13zM15,15H16V16H15zM16,15H17V16H16zM18,15H19V16H18zM19,15H20V16H19zM20,15H21V16H20zM22,15H23V16H22zM23,15H24V16H23zM24,15H25V16H24zM25,15H26V16H25zM7,16H8V17H7zM9,16H10V17H9zM12,16H13V17H12zM13,16H14V17H13zM14,16H15V17H14zM16,16H17V17H16zM17,16H18V17H17zM18,16H19V17H18zM20,16H21V17H20zM21,16H22V17H21zM25,16H26V17H25zM5,17H6V18H5zM7,17H8V18H7zM8,17H9V18H8zM9,17H10V18H9zM10,17H11V18H10zM11,17H12V18H11zM12,17H13V18H12zM15,17H16V18H15zM16,17H17V18H16zM18,17H19V18H18zM19,17H20V18H19zM20,17H21V18H20zM24,17H25V18H24zM25,17H26V18H25zM13,18H14V19H13zM19,18H20V19H19zM24,18H25V19H24zM25,18H26V19H25zM5,19H6V20H5zM6,19H7V20H6zM7,19H8V20H7zM8,19H9V20H8zM9,19H10V20H9zM10,19H11V20H10zM11,19H12V20H11zM14,19H15V20H14zM15,19H16V20H15zM17,19H18V20H17zM21,19H22V20H21zM22,19H23V20H22zM23,19H24V20H23zM24,19H25V20H24zM25,19H26V20H25zM5,20H6V21H5zM11,20H12V21H11zM14,20H15V21H14zM19,20H20V21H19zM24,20H25V21H24zM5,21H6V22H5zM7,21H8V22H7zM8,21H9V22H8zM9,21H10V22H9zM11,21H12V22H11zM13,21H14V22H13zM15,21H16V22H15zM17,21H18V22H17zM19,21H20V22H19zM21,21H22V22H21zM24,21H25V22H24zM25,21H26V22H25zM5,22H6V23H5zM7,22H8V23H7zM8,22H9V23H8zM9,22H10V23H9zM11,22H12V23H11zM16,22H17V23H16zM18,22H19V23H18zM20,22H21V23H20zM22,22H23V23H22zM23,22H24V23H23zM24,22H25V23H24zM5,23H6V24H5zM7,23H8V24H7zM8,23H9V24H8zM9,23H10V24H9zM11,23H12V24H11zM13,23H14V24H13zM14,23H15V24H14zM15,23H16V24H15zM16,23H17V24H16zM18,23H19V24H18zM19,23H20V24H19zM20,23H21V24H20zM22,23H23V24H22zM25,23H26V24H25zM5,24H6V25H5zM11,24H12V25H11zM14,24H15V25H14zM16,24H17V25H16zM17,24H18V25H17zM18,24H19V25H18zM20,24H21V25H20zM21,24H22V25H21zM22,24H23V25H22zM24,24H25V25H24zM5,25H6V26H5zM6,25H7V26H6zM7,25H8V26H7zM8,25H9V26H8zM9,25H10V26H9zM10,25H11V26H10zM11,25H12V26H11zM13,25H14V26H13zM14,25H15V26H14zM15,25H16V26H15zM16,25H17V26H16zM18,25H19V26H18zM19,25H20V26H19zM20,25H21V26H20zM23,25H24V26H23zM24,25H25V26H24zM25,25H26V26H25z"
        id="qr-path" fill="#000000" fill-opacity="1" fill-rule="nonzero" stroke="none" />
</svg>